<?xml version="1.0" encoding="UTF-8" standalone="no"?>
<svg width="266" zoomAndPan="magnify" viewBox="0 0 199.5 199.5" height="266" preserveAspectRatio="xMidYMid" version="1.0" id="svg155" sodipodi:docname="deploio.svg" inkscape:version="1.2.2 (b0a8486541, 2022-12-01)" xmlns:inkscape="http://www.inkscape.org/namespaces/inkscape" xmlns:sodipodi="http://sodipodi.sourceforge.net/DTD/sodipodi-0.dtd" xmlns="http://www.w3.org/2000/svg" xmlns:svg="http://www.w3.org/2000/svg">
  <sodipodi:namedview id="namedview157" pagecolor="#ffffff" bordercolor="#000000" borderopacity="0.25" inkscape:showpageshadow="2" inkscape:pageopacity="0.0" inkscape:pagecheckerboard="0" inkscape:deskcolor="#d1d1d1" showgrid="false" inkscape:zoom="2.002" inkscape:cx="47.452547" inkscape:cy="128.62138" inkscape:window-width="1720" inkscape:window-height="1371" inkscape:window-x="1920" inkscape:window-y="32" inkscape:window-maximized="0" inkscape:current-layer="svg155"/>
  <defs id="defs13">
    <g id="g2"/>
    <clipPath id="fc20dee693">
      <path d="M 87.933594,87.933594 H 287.43359 V 287.43359 H 87.933594 Z m 0,0" clip-rule="nonzero" id="path4"/>
    </clipPath>
    <clipPath id="cdb4d6b618">
      <path d="m 142.19531,140.24609 h 90.75 v 79.5 h -90.75 z m 0,0" clip-rule="nonzero" id="path7"/>
    </clipPath>
    <clipPath id="1adc64997d">
      <path d="m 126.80859,126.80859 h 121.5 v 121.5 h -121.5 z m 0,0" clip-rule="nonzero" id="path10"/>
    </clipPath>
  </defs>
  <g clip-path="url(#fc20dee693)" id="g17" transform="translate(-87.933594,-87.933594)">
    <path fill="#141d50" d="m 187.68359,87.933594 c -55.03515,0 -99.749996,44.714846 -99.749996,99.749996 0,55.03907 44.714846,99.75 99.749996,99.75 55.03907,0 99.75,-44.71093 99.75,-99.75 0,-55.03515 -44.71093,-99.749996 -99.75,-99.749996 z m 0,4.339844 c 52.75,0 95.41407,42.660152 95.41407,95.410152 0,52.75 -42.66407,95.41407 -95.41407,95.41407 -52.75,0 -95.410152,-42.66407 -95.410152,-95.41407 0,-52.75 42.660152,-95.410152 95.410152,-95.410152 z m 0,0" fill-opacity="1" fill-rule="nonzero" id="path15"/>
  </g>
  <path fill="#141d50" d="m 142.12891,125.52735 h -0.44922 l -3.61719,-5.44141 -25.48437,-38.363284 6.05078,-9.10547 c 0.41406,-0.62109 0.24609,-1.46875 -0.37891,-1.88672 -0.62109,-0.41406 -1.46484,-0.24609 -1.8789,0.37891 l -5.42188,8.16015 -3.79297,-5.70703 6.04688,-9.10547 c 0.41406,-0.625 0.24609,-1.47265 -0.375,-1.88671 -0.6211,-0.41797 -1.46485,-0.2461 -1.87891,0.375 l -5.42578,8.16406 -3.79297,-5.71094 6.05078,-9.10547 c 0.41407,-0.625 0.2461,-1.46875 -0.375,-1.88672 -0.625,-0.41406 -1.46484,-0.24609 -1.88281,0.37891 l -5.42187,8.16016 -5.421884,-8.16016 c -0.41797,-0.625 -1.25781,-0.79297 -1.87891,-0.37891 -0.625,0.41797 -0.79296,1.26172 -0.3789,1.88672 l 6.05078,9.10547 -36.33203,54.687504 -3.61328,5.44141 h -0.45313 c -0.75,0 -1.35547,0.60937 -1.35547,1.35937 0,0.75391 0.60547,1.36328 1.35547,1.36328 h 84.054694 c 0.75,0 1.35547,-0.60937 1.35547,-1.36328 0,-0.75 -0.60547,-1.35937 -1.35547,-1.35937 z m -72.757814,0 h -7.58594 l 2.59766,-3.91016 0.0156,-0.0234 35.703134,-53.742184 3.79296,5.71093 z m 10.84765,0 h -7.58593 l 20.61718,-31.035164 12.273444,-18.47656 3.79297,5.70703 z m 19.882824,0 H 83.476566 l 15.19531,-22.8711 12.277344,-18.480474 24.85938,37.417974 0.0117,0.0234 2.59765,3.91016 z m 0,0" fill-opacity="1" fill-rule="evenodd" id="path23"/>
  <g clip-path="url(#1adc64997d)" id="g27" transform="translate(-87.933594,-87.933594)">
    <path fill="#141d50" d="m 187.55859,248.30859 c -33.5625,0 -60.75,-27.375 -60.75,-60.75 0,-33.375 27.1875,-60.75 60.75,-60.75 33.5625,0 60.75,27.1875 60.75,60.75 0,33.5625 -27.375,60.75 -60.75,60.75 z m 0,-117.75 c -31.5,0 -57,25.5 -57,57 0,31.5 25.5,57 57,57 31.5,0 57,-25.5 57,-57 0,-31.5 -25.6875,-57 -57,-57 z m 0,0" fill-opacity="1" fill-rule="nonzero" id="path25"/>
  </g>
  <g fill="#141d50" fill-opacity="1" id="g35" transform="translate(-87.933594,-87.933594)">
    <g transform="translate(120.17192,160.74218)" id="g33">
      <g id="g31">
        <path d="m -5.984375,-22.5 14.125,7.859375 -1.8125,3.28125 -5.78125,-3.21875 -3.578125,6.421875 5.78125,3.21875 -1.8125,3.265625 -14.125,-7.859375 1.8125,-3.265625 5.5625,3.09375 3.578125,-6.421875 -5.5625,-3.09375 z m 0,0" id="path29"/>
      </g>
    </g>
  </g>
  <g fill="#141d50" fill-opacity="1" id="g43" transform="translate(-87.933594,-87.933594)">
    <g transform="translate(131.09388,141.96009)" id="g41">
      <g id="g39">
        <path d="m 7.265625,-6.5 c -1.21875,1.15625 -2.570313,1.9375 -4.046875,2.34375 -1.46875,0.398438 -2.917969,0.398438 -4.34375,0 -1.425781,-0.40625 -2.679688,-1.179688 -3.765625,-2.328125 -1.101563,-1.164063 -1.8125,-2.46875 -2.125,-3.90625 -0.320313,-1.4375 -0.238281,-2.878906 0.25,-4.328125 0.480469,-1.457031 1.328125,-2.765625 2.546875,-3.921875 1.21875,-1.15625 2.5625,-1.925781 4.03125,-2.3125 1.46875,-0.394531 2.914062,-0.398437 4.34375,-0.01563 1.425781,0.386719 2.691406,1.164062 3.796875,2.328125 1.082031,1.148437 1.78125,2.449219 2.09375,3.90625 0.320313,1.449219 0.242187,2.898437 -0.234375,4.34375 C 9.332031,-8.953125 8.484375,-7.65625 7.265625,-6.5 Z m -2.1875,-2.3125 c 0.6875,-0.65625 1.160156,-1.40625 1.421875,-2.25 0.257812,-0.84375 0.28125,-1.703125 0.0625,-2.578125 -0.21875,-0.875 -0.671875,-1.671875 -1.359375,-2.390625 -0.6875,-0.726562 -1.464844,-1.226562 -2.328125,-1.5 -0.855469,-0.269531 -1.714844,-0.300781 -2.578125,-0.09375 -0.863281,0.210938 -1.640625,0.640625 -2.328125,1.296875 -0.695312,0.65625 -1.171875,1.414063 -1.421875,2.265625 -0.257813,0.84375 -0.273437,1.703125 -0.046875,2.578125 0.21875,0.875 0.671875,1.679687 1.359375,2.40625 0.6875,0.71875 1.460937,1.214844 2.3125,1.484375 0.851563,0.273438 1.707031,0.304688 2.5625,0.09375 0.863281,-0.21875 1.644531,-0.65625 2.34375,-1.3125 z m 0,0" id="path37"/>
      </g>
    </g>
  </g>
  <g fill="#141d50" fill-opacity="1" id="g51" transform="translate(-87.933594,-87.933594)">
    <g transform="translate(148.07775,126.95302)" id="g49">
      <g id="g47">
        <path d="m 6.546875,-3.078125 c -1.136719,0.59375 -2.3125,1.011719 -3.53125,1.25 -1.21875,0.230469 -2.28125,0.265625 -3.1875,0.109375 l -0.15625,-3.078125 c 0.84375,0.125 1.757813,0.109375 2.75,-0.046875 C 3.410156,-5 4.332031,-5.296875 5.1875,-5.734375 6.132812,-6.222656 6.757812,-6.726562 7.0625,-7.25 7.375,-7.769531 7.410156,-8.257812 7.171875,-8.71875 6.992188,-9.0625 6.707031,-9.273438 6.3125,-9.359375 5.925781,-9.453125 5.488281,-9.457031 5,-9.375 4.519531,-9.300781 3.882812,-9.160156 3.09375,-8.953125 1.863281,-8.648438 0.832031,-8.445312 0,-8.34375 -0.832031,-8.25 -1.644531,-8.359375 -2.4375,-8.671875 c -0.800781,-0.320313 -1.453125,-0.957031 -1.953125,-1.90625 -0.425781,-0.832031 -0.585937,-1.707031 -0.484375,-2.625 0.09375,-0.914063 0.496094,-1.800781 1.203125,-2.65625 0.699219,-0.863281 1.703125,-1.632813 3.015625,-2.3125 0.914062,-0.476563 1.867188,-0.832031 2.859375,-1.0625 0.988281,-0.238281 1.914063,-0.320313 2.78125,-0.25 l 0.28125,3.046875 c -1.71875,-0.0625 -3.242187,0.246094 -4.5625,0.921875 -0.925781,0.492187 -1.535156,1 -1.828125,1.53125 -0.289062,0.53125 -0.304688,1.042969 -0.046875,1.53125 0.25,0.492187 0.695313,0.726563 1.328125,0.703125 0.644531,-0.03125 1.550781,-0.203125 2.71875,-0.515625 1.226562,-0.3125 2.257812,-0.515625 3.09375,-0.609375 0.832031,-0.101562 1.644531,0 2.4375,0.3125 0.789062,0.304688 1.4375,0.929688 1.9375,1.875 0.425781,0.824219 0.582031,1.695312 0.46875,2.609375 -0.105469,0.917969 -0.515625,1.8125 -1.234375,2.6875 -0.710937,0.867187 -1.71875,1.636719 -3.03125,2.3125 z m 0,0" id="path45"/>
      </g>
    </g>
  </g>
  <g fill="#141d50" fill-opacity="1" id="g59" transform="translate(-87.933594,-87.933594)">
    <g transform="translate(164.39747,119.00436)" id="g57">
      <g id="g55">
        <path d="m 2.125,-13.984375 -5.03125,1.1875 -0.703125,-2.96875 13.703125,-3.21875 0.703125,2.96875 -5.03125,1.171875 3,12.78125 L 5.125,-1.203125 Z m 0,0" id="path53"/>
      </g>
    </g>
  </g>
  <g fill="#141d50" fill-opacity="1" id="g67" transform="translate(-87.933594,-87.933594)">
    <g transform="translate(181.67595,115.30522)" id="g65">
      <g id="g63">
        <path d="m 14.5,-2.6875 -0.0625,3 L 1.921875,0.046875 2.265625,-16.125 l 12.21875,0.25 -0.0625,3.015625 -8.5,-0.171875 -0.078125,3.5 7.5,0.15625 -0.0625,2.90625 -7.5,-0.15625 -0.078125,3.75 z m 0,0" id="path61"/>
      </g>
    </g>
  </g>
  <g fill="#141d50" fill-opacity="1" id="g75" transform="translate(-87.933594,-87.933594)">
    <g transform="translate(200.39084,115.90627)" id="g73">
      <g id="g71">
        <path d="m 6.65625,-14.859375 7.015625,2.1875 c 1.664063,0.523437 3.039063,1.308594 4.125,2.359375 1.09375,1.042969 1.8125,2.261719 2.15625,3.65625 0.351563,1.386719 0.289063,2.851562 -0.1875,4.390625 -0.492187,1.542969 -1.273437,2.773437 -2.34375,3.703125 -1.074219,0.9375 -2.355469,1.519531 -3.84375,1.75 C 12.085938,3.425781 10.507812,3.285156 8.84375,2.765625 L 1.828125,0.578125 Z M 9.578125,-0.21875 c 1.539063,0.476562 2.90625,0.4375 4.09375,-0.125 1.1875,-0.570312 2.015625,-1.59375 2.484375,-3.0625 0.457031,-1.476562 0.359375,-2.789062 -0.296875,-3.9375 -0.65625,-1.144531 -1.757813,-1.957031 -3.296875,-2.4375 L 9.296875,-10.8125 6.3125,-1.25 Z m 0,0" id="path69"/>
      </g>
    </g>
  </g>
  <g fill="#141d50" fill-opacity="1" id="g81" transform="translate(-87.933594,-87.933594)">
    <g transform="translate(221.58491,123.70313)" id="g79">
      <g id="g77"/>
    </g>
  </g>
  <g fill="#141d50" fill-opacity="1" id="g89" transform="translate(-87.933594,-87.933594)">
    <g transform="translate(230.51856,128.55156)" id="g87">
      <g id="g85">
        <path d="M 6.890625,6.90625 C 5.671875,5.75 4.816406,4.441406 4.328125,2.984375 3.847656,1.535156 3.769531,0.09375 4.09375,-1.34375 c 0.320312,-1.445312 1.023438,-2.742188 2.109375,-3.890625 1.101563,-1.164063 2.363281,-1.945313 3.78125,-2.34375 1.425781,-0.394531 2.875,-0.390625 4.34375,0.015625 1.476563,0.398438 2.828125,1.171875 4.046875,2.328125 1.21875,1.15625 2.066406,2.460937 2.546875,3.90625 0.476563,1.4375 0.5625,2.878906 0.25,4.328125 -0.3125,1.445312 -1.023437,2.753906 -2.125,3.921875 -1.085937,1.144531 -2.34375,1.910156 -3.78125,2.296875 -1.429687,0.394531 -2.875,0.394531 -4.34375,0 -1.46875,-0.386719 -2.8125,-1.15625 -4.03125,-2.3125 z m 2.1875,-2.3125 c 0.6875,0.65625 1.460937,1.085938 2.328125,1.296875 0.863281,0.207031 1.722656,0.175781 2.578125,-0.09375 0.851563,-0.273437 1.625,-0.765625 2.3125,-1.484375 0.6875,-0.730469 1.140625,-1.53125 1.359375,-2.40625 0.226562,-0.875 0.210938,-1.734375 -0.04687,-2.578125 -0.261719,-0.84375 -0.734375,-1.59375 -1.421875,-2.25 -0.699219,-0.65625 -1.480469,-1.085937 -2.34375,-1.296875 -0.855469,-0.21875 -1.714844,-0.191406 -2.578125,0.078125 -0.855469,0.273437 -1.625,0.773437 -2.3125,1.5 C 8.265625,-1.921875 7.8125,-1.125 7.59375,-0.25 7.375,0.625 7.390625,1.484375 7.640625,2.328125 7.898438,3.179688 8.378906,3.9375 9.078125,4.59375 Z m 0,0" id="path83"/>
      </g>
    </g>
  </g>
  <g fill="#141d50" fill-opacity="1" id="g97" transform="translate(-87.933594,-87.933594)">
    <g transform="translate(246.51741,144.43378)" id="g95">
      <g id="g93">
        <path d="M 22.265625,6.78125 8.140625,14.640625 6.65625,11.953125 11.3125,0.140625 2.734375,4.90625 0.9375,1.671875 15.0625,-6.1875 l 1.5,2.703125 -4.671875,11.8125 8.578125,-4.78125 z m 0,0" id="path91"/>
      </g>
    </g>
  </g>
  <g fill="#141d50" fill-opacity="1" id="g105" transform="translate(-87.933594,-87.933594)">
    <g transform="translate(119.73372,241.64727)" id="g103">
      <g id="g101">
        <path d="m 12.890625,-9.953125 5.140625,5.234375 c 1.226562,1.25 2.070312,2.59375 2.53125,4.03125 0.46875,1.425781 0.523438,2.832031 0.171875,4.21875 -0.34375,1.382812 -1.09375,2.644531 -2.25,3.78125 -1.15625,1.125 -2.429687,1.847656 -3.8125,2.171875 C 13.285156,9.804688 11.878906,9.71875 10.453125,9.21875 9.035156,8.726562 7.710938,7.859375 6.484375,6.609375 L 1.34375,1.375 Z M 8.5625,4.328125 c 1.125,1.144531 2.34375,1.75 3.65625,1.8125 1.3125,0.0625 2.519531,-0.449219 3.625,-1.53125 C 16.945312,3.523438 17.476562,2.320312 17.4375,1 17.40625,-0.3125 16.828125,-1.539062 15.703125,-2.6875 L 13.3125,-5.140625 6.171875,1.875 Z m 0,0" id="path99"/>
      </g>
    </g>
  </g>
  <g fill="#141d50" fill-opacity="1" id="g113" transform="translate(-87.933594,-87.933594)">
    <g transform="translate(139.15322,259.55967)" id="g111">
      <g id="g109">
        <path d="M 14.078125,4.390625 12.625,7.015625 1.6875,0.9375 9.53125,-13.203125 20.203125,-7.28125 18.75,-4.640625 11.328125,-8.765625 9.625,-5.703125 16.171875,-2.0625 14.765625,0.46875 8.21875,-3.171875 6.390625,0.109375 Z m 0,0" id="path107"/>
      </g>
    </g>
  </g>
  <g fill="#141d50" fill-opacity="1" id="g121" transform="translate(-87.933594,-87.933594)">
    <g transform="translate(159.47676,269.81349)" id="g119">
      <g id="g117">
        <path d="m 12.421875,-13.671875 c 1.382813,0.324219 2.53125,0.839844 3.4375,1.546875 0.90625,0.710938 1.535156,1.558594 1.890625,2.546875 0.363281,0.992187 0.40625,2.070313 0.125,3.234375 -0.273438,1.15625 -0.792969,2.101562 -1.5625,2.828125 -0.761719,0.730469 -1.703125,1.203125 -2.828125,1.421875 -1.125,0.210938 -2.382813,0.152344 -3.765625,-0.171875 L 6.53125,-3.03125 5.5,1.296875 1.875,0.4375 5.609375,-15.296875 Z m -2.21875,8.375 c 1.09375,0.261719 1.976563,0.226563 2.65625,-0.109375 0.675781,-0.34375 1.117187,-0.945312 1.328125,-1.8125 0.207031,-0.882812 0.08203,-1.628906 -0.375,-2.234375 -0.449219,-0.613281 -1.21875,-1.050781 -2.3125,-1.3125 L 8.53125,-11.46875 7.234375,-6 Z m 0,0" id="path115"/>
      </g>
    </g>
  </g>
  <g fill="#141d50" fill-opacity="1" id="g129" transform="translate(-87.933594,-87.933594)">
    <g transform="translate(183.13097,274.24485)" id="g127">
      <g id="g125">
        <path d="m 1.40625,-16.21875 3.734375,-0.109375 0.421875,13.109375 8.109375,-0.265625 0.09375,3.046875 -11.84375,0.375 z m 0,0" id="path123"/>
      </g>
    </g>
  </g>
  <g fill="#141d50" fill-opacity="1" id="g137" transform="translate(-87.933594,-87.933594)">
    <g transform="translate(204.39165,272.92966)" id="g135">
      <g id="g133">
        <path d="m 9.375,-2.734375 c -1.59375,0.523437 -3.148438,0.648437 -4.65625,0.375 -1.511719,-0.28125 -2.824219,-0.90625 -3.9375,-1.875 -1.113281,-0.976563 -1.914062,-2.222656 -2.40625,-3.734375 -0.488281,-1.519531 -0.566406,-3 -0.234375,-4.4375 0.335937,-1.4375 1.03125,-2.703125 2.09375,-3.796875 1.070313,-1.101563 2.40625,-1.914063 4,-2.4375 1.59375,-0.507813 3.132813,-0.625 4.625,-0.34375 1.5,0.273437 2.804687,0.890625 3.921875,1.859375 1.125,0.960938 1.929688,2.199219 2.421875,3.71875 0.488281,1.511719 0.5625,2.992188 0.21875,4.4375 -0.335937,1.449219 -1.027344,2.726562 -2.078125,3.828125 -1.054688,1.09375 -2.375,1.898437 -3.96875,2.40625 z m -0.984375,-3.03125 c 0.894531,-0.289063 1.640625,-0.757813 2.234375,-1.40625 0.601562,-0.65625 0.992188,-1.425781 1.171875,-2.3125 0.175781,-0.882813 0.109375,-1.800781 -0.203125,-2.75 -0.304688,-0.945313 -0.789062,-1.726563 -1.453125,-2.34375 -0.65625,-0.613281 -1.421875,-1.007813 -2.296875,-1.1875 -0.867188,-0.1875 -1.746094,-0.132813 -2.640625,0.15625 -0.917969,0.304687 -1.679687,0.78125 -2.28125,1.4375 -0.59375,0.648437 -0.980469,1.414063 -1.15625,2.296875 -0.167969,0.886719 -0.101563,1.804688 0.203125,2.75 0.3125,0.949219 0.796875,1.730469 1.453125,2.34375 0.65625,0.617188 1.414063,1.015625 2.28125,1.203125 0.875,0.179687 1.769531,0.117187 2.6875,-0.1875 z m 0,0" id="path131"/>
      </g>
    </g>
  </g>
  <g fill="#141d50" fill-opacity="1" id="g145" transform="translate(-87.933594,-87.933594)">
    <g transform="translate(229.01854,263.35127)" id="g143">
      <g id="g141">
        <path d="M -6.84375,-14.78125 -3.671875,-16.734375 4.8125,-2.96875 1.640625,-1.015625 Z m 0,0" id="path139"/>
      </g>
    </g>
  </g>
  <g fill="#141d50" fill-opacity="1" id="g153" transform="translate(-87.933594,-87.933594)">
    <g transform="translate(241.40498,255.56464)" id="g151">
      <g id="g149">
        <path d="m 7.046875,-6.734375 c -1.179687,1.1875 -2.5,2.011719 -3.96875,2.46875 -1.460937,0.449219 -2.90625,0.5 -4.34375,0.15625 -1.4375,-0.351563 -2.71875,-1.085937 -3.84375,-2.203125 -1.132813,-1.125 -1.882813,-2.398438 -2.25,-3.828125 -0.375,-1.425781 -0.34375,-2.875 0.09375,-4.34375 0.429687,-1.476563 1.230469,-2.8125 2.40625,-4 1.179687,-1.195313 2.496094,-2.015625 3.953125,-2.453125 1.457031,-0.445312 2.90625,-0.5 4.34375,-0.15625 1.445312,0.335938 2.738281,1.0625 3.875,2.1875 1.125,1.117188 1.867188,2.390625 2.234375,3.828125 0.363281,1.4375 0.332031,2.890625 -0.09375,4.359375 -0.429687,1.460938 -1.230469,2.789062 -2.40625,3.984375 z m -2.265625,-2.25 c 0.664062,-0.675781 1.113281,-1.441406 1.34375,-2.296875 0.226562,-0.851562 0.210938,-1.710938 -0.046875,-2.578125 -0.25,-0.863281 -0.730469,-1.644531 -1.4375,-2.34375 -0.710937,-0.695313 -1.5,-1.164063 -2.375,-1.40625 -0.867187,-0.25 -1.726563,-0.25 -2.578125,0 -0.851562,0.242187 -1.613281,0.699219 -2.28125,1.375 -0.664062,0.679687 -1.113281,1.445313 -1.34375,2.296875 -0.226562,0.855469 -0.210938,1.714844 0.046875,2.578125 0.25,0.867187 0.730469,1.648437 1.4375,2.34375 0.710937,0.699219 1.5,1.171875 2.375,1.421875 0.863281,0.242188 1.722656,0.242188 2.578125,0 0.851562,-0.25 1.613281,-0.710938 2.28125,-1.390625 z m 0,0" id="path147"/>
      </g>
    </g>
  </g>
  <path style="fill:#000000;stroke-width:0.0936562" d="m 26.312052,67.263836 c -3.71709,-2.07243 -6.85116,-3.82968 -6.964605,-3.905002 -0.206077,-0.13683 -0.20553,-0.13824 0.6522,-1.676467 0.472148,-0.846735 0.868725,-1.5498 0.881288,-1.562363 0.01897,-0.01898 2.27805,1.219778 4.972522,2.72661 l 0.598597,0.334755 1.798868,-3.238485 c 1.005075,-1.809427 1.762755,-3.272992 1.71702,-3.31668 -0.045,-0.04297 -1.289648,-0.747997 -2.765843,-1.56666 l -2.683979,-1.488465 0.857684,-1.562857 c 0.471728,-0.859568 0.89277,-1.56324 0.935655,-1.563713 0.148898,-0.0015 13.923653,7.704458 13.923653,7.789395 0,0.153915 -1.636778,3.06828 -1.72482,3.071115 -0.04718,0.0015 -1.345568,-0.69927 -2.885243,-1.557315 -2.3667,-1.318927 -2.81799,-1.539705 -2.919517,-1.428255 -0.23919,0.26256 -3.528435,6.27357 -3.477773,6.355545 0.02865,0.04628 1.317833,0.787252 2.864918,1.646557 1.547092,0.859305 2.800365,1.592363 2.78505,1.629008 -0.11529,0.275782 -1.720673,3.095752 -1.75878,3.089415 -0.0267,-0.0045 -3.089805,-1.703708 -6.806895,-3.776138 z" id="path253"/>
  <path style="fill:#000000;stroke-width:0.0936562" d="m 43.351354,50.066089 c -3.0162,-0.3171 -5.903235,-2.658405 -6.903142,-5.598255 -0.993038,-2.919652 -0.217838,-6.103485 2.083035,-8.555242 1.30416,-1.38969 2.635462,-2.230073 4.37307,-2.760495 0.755475,-0.23061 0.988627,-0.257678 2.24775,-0.260955 1.560592,-0.0038 2.072625,0.0979 3.30984,0.659122 1.870522,0.84849 3.595597,2.658765 4.31751,4.53075 0.806377,2.091008 0.727777,4.36506 -0.221933,6.420578 -1.094362,2.368612 -3.452835,4.451962 -5.91264,5.222917 -0.590895,0.185205 -2.450437,0.490718 -2.589547,0.42546 -0.01493,-0.0067 -0.33168,-0.04478 -0.703943,-0.08388 z m 2.428283,-3.470865 c 0.885382,-0.18228 1.836067,-0.71799 2.55723,-1.440997 1.052977,-1.055663 1.54485,-2.188643 1.54485,-3.55842 0,-1.38459 -0.438075,-2.483963 -1.414358,-3.549398 -2.11074,-2.303505 -5.28633,-2.429085 -7.433572,-0.29397 -1.053308,1.047353 -1.547925,2.19426 -1.547925,3.58929 0,1.451318 0.48864,2.562428 1.638577,3.725933 1.33602,1.351785 2.9448,1.879687 4.655198,1.527562 z" id="path255"/>
  <path style="fill:#000000;stroke-width:0.0936562" d="m 60.120762,37.258947 c -0.07147,-0.04545 -0.133028,-0.57807 -0.175778,-1.520483 l -0.06577,-1.45053 1.346483,-0.01208 c 1.123417,-0.01005 1.499654,-0.05227 2.271044,-0.255052 1.612103,-0.423728 3.066068,-1.260518 3.66099,-2.106998 0.244598,-0.348015 0.28458,-0.488445 0.28458,-0.99945 0,-0.529147 -0.03,-0.625897 -0.273,-0.879502 -0.586282,-0.611948 -1.47423,-0.618233 -3.941535,-0.0279 -2.484382,0.59442 -3.468329,0.730125 -4.326472,0.596715 -1.012582,-0.157425 -1.701195,-0.495038 -2.30865,-1.131885 -1.441095,-1.510845 -1.688167,-3.663563 -0.63066,-5.494897 1.287158,-2.22903 4.923443,-4.18944 8.173702,-4.406655 0.903713,-0.06038 0.90813,-0.05963 0.954653,0.163785 0.04537,0.217965 0.244695,2.365537 0.244695,2.636535 0,0.105397 -0.219945,0.147585 -1.006808,0.193132 -1.288237,0.07455 -2.287229,0.329438 -3.359129,0.857025 -1.453905,0.715613 -2.190368,1.542262 -2.189655,2.457802 6.45e-4,0.833618 0.592132,1.430978 1.41756,1.431638 0.52698,4.27e-4 1.633147,-0.20157 3.077594,-0.56199 3.518333,-0.877898 5.06625,-0.742313 6.376103,0.558487 1.79715,1.78473 1.692742,4.48545 -0.253388,6.554198 -1.915125,2.035792 -5.341785,3.474105 -8.265667,3.469455 -0.49548,-7.5e-4 -0.95037,-0.03293 -1.010857,-0.0714 z" id="path257"/>
  <path style="fill:#000000;stroke-width:0.0936562" d="m 81.580526,29.614399 c -0.02595,-0.108127 -0.69906,-2.97426 -1.495822,-6.369187 -0.796755,-3.394927 -1.459605,-6.181912 -1.472985,-6.193297 -0.01335,-0.0114 -1.141185,0.243982 -2.50623,0.567487 -1.365038,0.323505 -2.48892,0.58176 -2.497515,0.5739 -0.0399,-0.03645 -0.68526,-2.809882 -0.659798,-2.835345 0.0375,-0.0375 13.16952,-3.127477 13.401255,-3.153315 0.15234,-0.01695 0.21996,0.165593 0.505178,1.36395 0.181117,0.760958 0.309712,1.403145 0.285765,1.427093 -0.02392,0.02393 -1.134405,0.298515 -2.467688,0.610162 -1.333282,0.311648 -2.439502,0.581985 -2.458267,0.600758 -0.01875,0.01875 0.6381,2.893605 1.459717,6.388522 0.821618,3.494917 1.46049,6.367177 1.41972,6.3828 -0.0408,0.0156 -0.83733,0.209452 -1.770142,0.430732 -1.675725,0.397515 -1.69659,0.399983 -1.743188,0.20574 z" id="path259"/>
  <path style="fill:#000000;stroke-width:0.0936562" d="m 99.800546,27.473359 c -2.24073,-0.0477 -4.078755,-0.09331 -4.084507,-0.101355 -0.0285,-0.0399 0.344542,-16.020554 0.374647,-16.050659 0.0486,-0.0486 10.947604,0.157965 11.553574,0.218932 l 0.4917,0.0495 v 1.45227 1.452278 l -1.80288,-0.0534 c -0.99159,-0.0294 -2.90242,-0.07819 -4.2463,-0.10851 l -2.443412,-0.05512 -0.06112,1.756537 c -0.0336,0.966098 -0.04102,1.776645 -0.01642,1.801223 0.03855,0.03855 4.980992,0.182205 6.814092,0.198052 l 0.63218,0.0053 v 1.409235 1.409228 l -3.39504,-0.05483 c -1.86728,-0.03015 -3.54824,-0.07402 -3.735498,-0.09743 -0.446962,-0.05595 -0.452759,-0.0294 -0.454349,2.07807 l -0.0015,1.700438 0.444862,0.0531 c 0.244685,0.02917 2.230715,0.08092 4.413415,0.114982 l 3.96854,0.06187 -0.0576,0.47916 c -0.0316,0.263542 -0.058,0.911152 -0.0584,1.439145 l -7.5e-4,0.959977 -2.13069,-0.01568 c -1.17187,-0.0086 -3.96399,-0.05475 -6.204725,-0.102435 z" id="path261"/>
  <path style="fill:#000000;stroke-width:0.0936562" d="m 123.63609,31.187239 c -1.06207,-0.157725 -2.18247,-0.45984 -5.23901,-1.4127 -1.90907,-0.59514 -3.60206,-1.119405 -3.7622,-1.165027 l -0.29117,-0.08295 2.39242,-7.655655 c 1.31583,-4.210605 2.3972,-7.664745 2.40305,-7.675867 0.0231,-0.04403 7.43816,2.306482 7.99541,2.534452 3.93901,1.611428 6.06044,5.211503 5.27912,8.958667 -0.39466,1.89279 -1.16015,3.30642 -2.44492,4.515038 -0.87078,0.819172 -2.06295,1.468425 -3.23584,1.762245 -0.72117,0.18066 -2.51078,0.308835 -3.09686,0.221797 z m 1.98813,-3.32211 c 1.21173,-0.416902 2.07507,-1.194375 2.65781,-2.393475 1.43849,-2.960032 0.37357,-5.897962 -2.5629,-7.070549 -0.70891,-0.28308 -3.94167,-1.298003 -3.98774,-1.251938 -0.10599,0.10599 -2.99757,9.556635 -2.93936,9.606817 0.12972,0.111825 3.53819,1.14186 4.18846,1.265745 0.81187,0.154673 1.93182,0.08833 2.64373,-0.1566 z" id="path263"/>
  <path style="fill:#000000;stroke-width:0.0936562" d="m 154.13181,49.930264 c -1.92923,-0.437572 -3.36086,-1.23219 -4.79831,-2.663257 -2.24228,-2.232323 -3.1949,-5.070188 -2.62497,-7.819808 0.53969,-2.603715 2.53733,-5.007577 5.02035,-6.041265 2.46139,-1.02468 5.46065,-0.66735 7.83583,0.933548 0.71409,0.481305 1.91096,1.616557 2.4809,2.35317 2.23406,2.887395 2.4248,6.752362 0.47523,9.63012 -1.16481,1.71939 -2.95735,3.019245 -4.84068,3.51021 -0.84366,0.21993 -2.77424,0.272857 -3.54835,0.09728 z m 2.61321,-3.53376 c 1.59364,-0.579352 2.97269,-2.022157 3.47215,-3.63267 0.26546,-0.855967 0.26172,-2.10186 -0.009,-2.904607 -0.68783,-2.041823 -2.52014,-3.474435 -4.63303,-3.622395 -1.47025,-0.102953 -2.74461,0.417577 -3.93908,1.608982 -1.13539,1.13247 -1.636,2.288865 -1.636,3.779078 0,1.175152 0.38668,2.19204 1.20951,3.180772 0.71312,0.856898 2.03056,1.637153 3.09868,1.835183 0.55109,0.10218 1.83842,-0.02692 2.43648,-0.244343 z" id="path265"/>
  <path style="fill:#000000;stroke-width:0.0936562" d="m 166.03899,69.796459 c -0.37345,-0.686385 -0.6786,-1.30722 -0.6781,-1.379625 4.9e-4,-0.07237 1.03107,-2.743133 2.29016,-5.934953 1.2591,-3.191812 2.27124,-5.821327 2.24921,-5.843362 -0.0221,-0.02205 -1.90606,0.99537 -4.18671,2.260905 -2.28066,1.265535 -4.20365,2.314598 -4.27332,2.331255 -0.0794,0.01897 -0.43761,-0.524535 -0.95997,-1.456567 -0.45832,-0.81777 -0.83331,-1.514243 -0.83331,-1.547723 0,-0.06188 13.70355,-7.71384 13.90137,-7.762425 0.12258,-0.03007 1.49914,2.386298 1.48232,2.602065 -0.006,0.07726 -1.04512,2.751323 -2.30911,5.94234 -1.26399,3.191025 -2.28181,5.818215 -2.26183,5.838202 0.0199,0.02003 1.93229,-1.020937 4.24955,-2.313165 2.31727,-1.292219 4.24881,-2.348879 4.29231,-2.348137 0.0435,7.5e-4 0.45309,0.678863 0.91023,1.506915 0.69633,1.261342 0.81027,1.524967 0.70242,1.625242 -0.11733,0.109095 -13.79471,7.732995 -13.8656,7.728818 -0.0168,-7.5e-4 -0.33616,-0.563393 -0.70962,-1.249785 z" id="path267"/>
  <path style="fill:#000000;stroke-width:0.0936562" d="M 12.182105,147.40138 C 5.6461098,135.52525 1.5278598,121.76217 0.39088232,107.99547 -0.09719517,102.08578 -0.02947017,95.283229 0.57550232,89.451521 2.5857198,70.073666 10.260522,51.683839 22.617252,36.636619 26.703829,31.660249 31.660249,26.703829 36.636619,22.617252 50.931432,10.878402 68.316701,3.3308073 86.641826,0.90812732 93.503599,9.6482754e-4 101.03926,-0.18178017 107.99547,0.39028982 129.52745,2.1610623 149.85558,10.905177 166.10924,25.387857 c 2.76379,2.462662 6.87991,6.66246 9.31938,9.508845 17.61774,20.556465 26.02932,46.946827 23.59779,74.035338 -1.17555,13.09617 -5.07551,26.07408 -11.37737,37.86057 l -0.6635,1.24095 h -2.3837 c -1.31104,0 -2.38371,-0.0272 -2.38371,-0.0605 0,-0.0332 0.2683,-0.52845 0.59623,-1.10046 6.58352,-11.48365 10.76654,-24.8622 11.9945,-38.36207 0.50942,-5.60032 0.50841,-11.772966 -0.003,-17.560559 C 193.62024,77.528486 189.36716,64.025344 182.63525,52.309579 171.0614,32.167197 152.6098,16.916082 130.75222,9.4258172 115.04359,4.0427073 97.754794,2.8662423 81.350059,6.0641072 58.162572,10.58417 37.470477,23.593175 23.27351,42.576522 9.1019222,61.525917 2.5479798,84.807251 4.6991823,108.55741 c 1.2069674,13.32536 5.2120124,26.23531 11.7608847,37.9103 0.455978,0.81289 0.82905,1.49775 0.82905,1.52192 0,0.0241 -1.070835,0.0439 -2.379637,0.0439 h -2.379645 z" id="path269"/>
  <path style="fill:#000000;stroke-width:0.0936562" d="m 61.916554,147.12853 c -5.14314,-4.12928 -9.568087,-8.98887 -13.115737,-14.40406 -4.469183,-6.82181 -7.57533,-14.68058 -8.97816,-22.71538 -1.253318,-7.17851 -1.169828,-14.937039 0.23736,-22.056076 2.69748,-13.646708 10.055062,-26.015242 20.792565,-34.953525 8.171489,-6.802245 17.681377,-11.241187 28.130654,-13.130595 3.663428,-0.662407 6.410348,-0.891435 10.676827,-0.89019 3.733927,7.5e-4 5.470707,0.11475 8.569557,0.560783 26.18914,3.769575 46.94485,24.052732 51.26655,50.099347 0.62288,3.754095 0.76023,5.58576 0.755,10.068052 -0.005,4.142584 -0.0763,5.238214 -0.56205,8.616384 -2.17427,15.12151 -10.08986,28.92796 -22.14212,38.62054 l -1.35506,1.08975 h -3.13576 c -1.72467,0 -3.09572,-0.0357 -3.04678,-0.0793 0.0489,-0.0436 0.67154,-0.4651 1.38357,-0.93666 3.054,-2.0226 5.58985,-4.12357 8.54461,-7.07929 2.28055,-2.28129 3.76411,-3.97427 5.42202,-6.18735 6.02507,-8.04268 9.83445,-17.69794 10.95599,-27.7691 0.53402,-4.79543 0.41719,-10.278176 -0.32231,-15.125509 -1.38159,-9.056257 -5.16346,-18.0228 -10.705,-25.38087 -2.82339,-3.748897 -6.47312,-7.507867 -10.13246,-10.435747 -11.71743,-9.375217 -26.6324,-13.721257 -41.630254,-12.130537 -21.749955,2.306865 -40.298182,16.92762 -47.654212,37.563727 -3.86553,10.8441 -4.331692,22.899316 -1.317787,34.078486 1.546012,5.73444 4.146142,11.49999 7.433685,16.48351 4.181512,6.33869 9.650355,11.83425 15.993112,16.0713 l 1.388212,0.92733 -3.16407,-0.001 -3.164077,-10e-4 -1.123875,-0.90233 z" id="path271"/>
  <path style="fill:#000000;stroke-width:0.0936562" d="m 57.402184,127.9949 c -0.386325,-0.23556 -0.589897,-0.6368 -0.589897,-1.16267 0,-0.70221 0.647272,-1.27619 1.439145,-1.27619 h 0.321292 l 14.452455,-21.75169 c 22.46385,-33.809239 25.38651,-38.214724 25.43358,-38.337379 0.02415,-0.06293 -1.36041,-2.234647 -3.076815,-4.825994 -2.85927,-4.316805 -3.120735,-4.744613 -3.120735,-5.106165 0,-0.967845 1.171785,-1.62306 1.968772,-1.10085 0.145058,0.09505 1.46751,1.984477 3.054203,4.363635 1.539097,2.307802 2.814246,4.196002 2.833646,4.196002 0.0194,0 1.28183,-1.886437 2.80538,-4.192095 2.00169,-3.029257 2.85259,-4.24083 3.06751,-4.36779 0.61639,-0.36411 1.47046,-0.122662 1.79913,0.508628 0.36443,0.699945 0.36401,0.700762 -3.02009,5.791125 l -3.10891,4.676437 1.90295,2.863305 c 1.04662,1.57482 1.93006,2.864475 1.96319,2.8659 0.0332,0.0015 1.27261,-1.832273 2.7544,-4.074885 1.48179,-2.242613 2.83641,-4.20237 3.01027,-4.355018 0.59734,-0.524475 1.59894,-0.298687 1.94918,0.439395 0.32093,0.676313 0.30065,0.71457 -3.04137,5.737928 l -3.10412,4.665765 1.88529,2.845342 c 1.03692,1.564935 1.91867,2.857508 1.95945,2.87238 0.0408,0.01485 1.29634,-1.818457 2.79015,-4.074052 1.49382,-2.255595 2.83044,-4.20645 2.97027,-4.335233 0.21079,-0.19413 0.34792,-0.234135 0.80248,-0.234135 0.47799,0 0.58475,0.03495 0.8332,0.273 0.34415,0.329723 0.51762,0.809625 0.43748,1.210313 -0.0326,0.162712 -1.45474,2.391847 -3.16045,4.95363 l -3.10127,4.657785 6.67434,10.046415 c 3.67089,5.525527 10.219,15.383931 14.55135,21.907561 l 7.877,11.86114 0.48667,0.0404 c 1.41545,0.11738 1.82457,1.8247 0.59022,2.463 -0.2355,0.12179 -5.41166,0.13857 -42.62878,0.13827 -41.848646,-3.8e-4 -42.364353,-0.002 -42.660566,-0.18317 z M 86.601536,99.699618 c 9.448673,-14.221027 17.214954,-25.931842 17.258404,-26.024017 0.0614,-0.130342 -0.34791,-0.807757 -1.84147,-3.047385 l -1.92048,-2.879782 -3.969511,5.981407 c -2.183235,3.289778 -10.805663,16.270425 -19.160963,28.845889 -8.355292,12.57546 -15.191444,22.89053 -15.191444,22.92239 0,0.0319 1.720364,0.0579 3.823027,0.0579 h 3.823035 z m 5.443103,8.130792 C 98.518924,98.082596 105.06781,88.219999 106.59771,85.913531 l 2.78163,-4.193572 -1.90061,-2.854065 c -1.04534,-1.569735 -1.9315,-2.854058 -1.96926,-2.854058 -0.0377,0 -0.82575,1.14846 -1.75111,2.55213 -0.92537,1.403678 -8.288239,12.494363 -16.361936,24.645974 -8.073705,12.15161 -14.701238,22.15059 -14.727855,22.21997 -0.04013,0.10448 0.6084,0.12593 3.77811,0.12496 l 3.826515,-10e-4 z m 46.370381,17.59658 c -0.44352,-0.76421 -27.42684,-41.265121 -27.47976,-41.246071 -0.0513,0.01845 -26.966681,40.454541 -27.472946,41.273691 -0.04493,0.0727 7.7358,0.10143 27.482456,0.10143 23.37331,0 27.53381,-0.0196 27.47025,-0.12905 z" id="path273"/>
  <path style="fill:#000000;stroke-width:0.0936562" d="m 95.070896,199.34732 c -22.927635,-1.08477 -44.406374,-9.88683 -61.766354,-25.31207 -1.600478,-1.4221 -6.45441,-6.27673 -7.87806,-7.87919 -4.629105,-5.2105 -8.660917,-10.78197 -12.08085,-16.69424 l -0.82617,-1.42826 h 2.422853 2.422852 l 0.257925,0.44487 c 0.72141,1.24429 2.308658,3.72579 3.365535,5.26167 3.846232,5.58945 7.936065,10.38096 12.971512,15.19698 15.45849,14.78486 35.64942,23.94386 57.036712,25.87296 5.600835,0.50519 11.855389,0.50529 17.513729,2.8e-4 19.31342,-1.72369 37.97347,-9.5084 52.72853,-21.99761 2.92862,-2.47889 7.46639,-6.88302 9.7536,-9.46635 3.90077,-4.4058 7.57471,-9.36175 10.32758,-13.93138 l 0.83222,-1.38142 h 2.37421 c 1.30583,0 2.37422,0.0248 2.37422,0.055 0,0.17487 -2.315,4.0484 -3.60539,6.03264 -6.23881,9.59356 -14.5154,18.42842 -23.78909,25.3937 -17.38207,13.05532 -38.43323,20.02997 -60.127369,19.92133 -1.49382,-0.008 -3.432502,-0.0475 -4.308195,-0.0889 z" id="path275"/>
  <path style="fill:#000000;stroke-width:0.0936562" d="m 43.372602,163.19974 c -0.725708,-0.17661 -1.59873,-0.49177 -2.200928,-0.79453 -1.24653,-0.62671 -1.97406,-1.25332 -4.988902,-4.29693 l -2.975288,-3.00366 1.724273,-1.68582 c 0.948352,-0.9272 3.533467,-3.46413 5.7447,-5.63761 l 4.020412,-3.9518 2.955158,3.0297 c 3.603855,3.6948 4.17306,4.4803 4.787332,6.60654 0.268725,0.93019 0.285795,2.91557 0.033,3.83991 -0.681607,2.49237 -2.904712,4.80945 -5.447175,5.67745 -0.64563,0.22042 -0.924105,0.2594 -2.013607,0.28186 -0.6954,0.0143 -1.432943,-0.0149 -1.638983,-0.0651 z m 1.75791,-3.40943 c 0.94635,-0.20054 1.691955,-0.63698 2.559045,-1.49796 1.563007,-1.55198 1.98633,-3.39941 1.21431,-5.29937 -0.333938,-0.82182 -0.77523,-1.38839 -2.366408,-3.03817 l -1.424302,-1.47677 -3.60162,3.5453 -3.60162,3.54529 1.14825,1.21966 c 1.928002,2.04792 2.844345,2.70497 4.173945,2.99291 0.789405,0.17094 1.127032,0.17256 1.8984,0.009 z" id="path277"/>
  <path style="fill:#000000;stroke-width:0.0936562" d="m 58.544929,175.63296 c -2.88462,-1.60803 -5.314432,-2.96522 -5.399595,-3.01598 -0.13392,-0.0798 0.365888,-1.03078 3.69942,-7.03879 2.119845,-3.82059 3.880725,-6.97283 3.913065,-7.00498 0.04823,-0.048 10.267845,5.55124 10.503225,5.75464 0.07388,0.0638 -1.237553,2.53064 -1.34532,2.53064 -0.03247,0 -1.689008,-0.90613 -3.681233,-2.01362 -1.992217,-1.10748 -3.65232,-2.01236 -3.689107,-2.01084 -0.0738,0.003 -1.705875,2.93697 -1.705875,3.06654 0,0.0445 1.386555,0.84994 3.081232,1.78994 1.694678,0.94 3.148163,1.75899 3.229958,1.81996 0.131032,0.0977 0.07012,0.25288 -0.51201,1.30491 -0.62418,1.12798 -0.67203,1.18819 -0.865133,1.08843 -0.112425,-0.058 -1.557345,-0.85881 -3.210937,-1.77939 -1.653592,-0.92058 -3.04686,-1.67378 -3.09615,-1.67378 -0.08974,0 -1.947922,3.26809 -1.88925,3.32274 0.0171,0.016 1.71696,0.96527 3.777398,2.10956 2.060437,1.14431 3.774367,2.09738 3.808732,2.11794 0.04973,0.0298 -1.301235,2.57647 -1.358145,2.56022 -0.0086,-0.002 -2.375662,-1.3201 -5.260275,-2.92814 z" id="path279"/>
  <path style="fill:#000000;stroke-width:0.0936562" d="m 95.586011,160.20491 c -7.738492,-0.59214 -14.680867,-2.38034 -21.482542,-5.53343 -3.417525,-1.58428 -7.119158,-3.76777 -10.115573,-5.96688 l -0.850515,-0.62421 3.116108,-0.0247 3.116107,-0.0247 1.003125,0.59404 c 7.277055,4.30945 14.987738,6.85898 23.433818,7.74836 3.533092,0.37204 8.552681,0.34851 12.175331,-0.0571 8.11557,-0.90862 16.13957,-3.60952 22.95616,-7.72711 l 0.92405,-0.55817 3.13914,0.0247 3.13914,0.0247 -1.45247,1.03022 c -2.7737,1.96736 -5.28406,3.45802 -8.42943,5.00544 -6.66007,3.27655 -13.31837,5.16341 -21.02584,5.95841 -1.69779,0.17512 -7.956731,0.25976 -9.646609,0.13045 z" id="path281"/>
  <path style="fill:#000000;stroke-width:0.0936562" d="m 75.262586,182.70808 c -0.952957,-0.22717 -1.742595,-0.42273 -1.75476,-0.43458 -0.02423,-0.0236 3.640643,-15.53506 3.68301,-15.58831 0.05535,-0.0695 7.336088,1.70916 8.040765,1.96439 1.074713,0.38925 1.972755,0.95441 2.721413,1.71264 1.076587,1.09035 1.576837,2.27059 1.571557,3.7078 -0.01095,2.98239 -1.882215,5.22264 -4.754475,5.69204 -1.219515,0.19929 -2.415465,0.0756 -4.731037,-0.48918 -0.952958,-0.23245 -1.797143,-0.42348 -1.875975,-0.42451 -0.11007,-10e-4 -0.2598,0.4926 -0.645203,2.12881 -0.276022,1.17187 -0.506542,2.13366 -0.512257,2.13731 -0.006,0.004 -0.790088,-0.17924 -1.743038,-0.40641 z m 9.13149,-6.17745 c 0.86691,-0.45458 1.36317,-1.30893 1.431645,-2.4647 0.03465,-0.5854 0.006,-0.78997 -0.167565,-1.19333 -0.240982,-0.56017 -0.72324,-1.03287 -1.40754,-1.37964 -0.398752,-0.20205 -4.104052,-1.19155 -4.193077,-1.11975 -0.04995,0.0403 -1.335105,5.50207 -1.302338,5.53484 0.01732,0.0173 0.829583,0.22152 1.80498,0.45374 1.544408,0.36769 1.88232,0.41854 2.61636,0.39375 0.633848,-0.0214 0.935828,-0.0772 1.217535,-0.22491 z" id="path283"/>
  <path style="fill:#000000;stroke-width:0.0936562" d="m 97.173041,186.10556 c -0.01837,-0.33835 -0.524445,-15.92549 -0.517477,-15.93848 0.01897,-0.0354 3.613716,-0.14909 3.620076,-0.11451 0.004,0.0204 0.1039,2.95744 0.22257,6.5268 0.11867,3.56936 0.23233,6.50631 0.25258,6.52656 0.0203,0.0203 1.82347,-0.0239 4.00716,-0.0981 2.18368,-0.0743 3.99511,-0.11016 4.02538,-0.0799 0.0303,0.0303 0.0701,0.70479 0.0885,1.49892 l 0.0335,1.44387 -0.68901,-1.8e-4 c -0.55347,-1.9e-4 -6.83477,0.18532 -10.312204,0.3045 -0.439072,0.0151 -0.72786,-0.0124 -0.730965,-0.0694 z" id="path285"/>
  <path style="fill:#000000;stroke-width:0.0936562" d="m 120.92005,182.53735 c -1.46332,-0.32016 -2.85847,-1.08075 -3.93554,-2.14553 -0.87653,-0.86653 -1.3539,-1.55801 -1.7909,-2.59417 -1.37889,-3.26949 -0.80421,-6.53887 1.57869,-8.98113 1.16275,-1.19172 2.79005,-2.1183 4.54323,-2.58691 0.79802,-0.2133 1.10228,-0.24503 2.36738,-0.24683 1.2112,-0.001 1.57579,0.0321 2.20093,0.20417 2.95492,0.81336 5.0544,2.93098 5.87184,5.92255 0.27694,1.01352 0.30795,3.08073 0.0596,3.97414 -0.25154,0.9049 -0.52415,1.56854 -0.89843,2.18709 -1.25289,2.07058 -3.16065,3.43417 -5.81056,4.15317 -0.96547,0.26195 -3.22734,0.32325 -4.18626,0.11345 z m 3.69943,-3.18836 c 0.81265,-0.22824 1.78043,-0.78491 2.34112,-1.34662 1.5601,-1.56293 1.84876,-4.00255 0.7347,-6.20947 -0.37169,-0.73632 -1.34034,-1.74126 -2.03552,-2.11179 -2.27826,-1.2143 -5.38488,-0.43303 -6.76423,1.70109 -0.76172,1.17852 -0.99145,2.75967 -0.60708,4.17821 0.54873,2.02518 2.16327,3.61716 3.9896,3.93386 0.63567,0.11023 1.65742,0.0469 2.34141,-0.14528 z" id="path287"/>
  <path style="fill:#000000;stroke-width:0.0936562" d="m 138.59529,167.6017 c -2.28069,-3.70392 -4.16747,-6.78854 -4.19286,-6.85471 -0.0578,-0.15066 2.93338,-2.00484 3.04146,-1.88534 0.10723,0.11856 8.34192,13.49714 8.34192,13.55279 0,0.0254 -0.59955,0.41361 -1.33232,0.8626 -0.73278,0.449 -1.41764,0.87097 -1.52192,0.93771 -0.17997,0.1152 -0.39998,-0.22033 -4.33628,-6.61305 z" id="path289"/>
  <path style="fill:#000000;stroke-width:0.0936562" d="m 152.52906,163.53218 c -2.05043,-0.41896 -3.98813,-1.75381 -5.25592,-3.62072 -1.52321,-2.24302 -1.77737,-5.18575 -0.66593,-7.71019 1.05411,-2.39422 3.19856,-4.44805 5.52219,-5.28884 3.06937,-1.11063 6.07028,-0.49834 8.42418,1.71882 1.84911,1.74168 2.74413,3.88279 2.62567,6.2812 -0.0622,1.25906 -0.30556,2.22651 -0.83035,3.30066 -1.28172,2.62352 -3.82212,4.67959 -6.51863,5.27584 -0.95834,0.21191 -2.38429,0.23059 -3.30121,0.0432 z m 3.41847,-3.43498 c 0.70548,-0.17509 1.65462,-0.75332 2.3064,-1.40509 1.75945,-1.75947 2.03107,-4.29802 0.67856,-6.34195 -1.03349,-1.56183 -2.75699,-2.53713 -4.48347,-2.53713 -1.36519,0 -2.52605,0.50284 -3.55894,1.5416 -1.03943,1.04535 -1.54533,2.20601 -1.54533,3.54542 0,1.40964 0.50115,2.53453 1.64413,3.69045 0.6148,0.62178 0.9141,0.84321 1.55596,1.15119 1.1046,0.53003 2.22702,0.6473 3.40269,0.35551 z" id="path291"/>
</svg>